<svg xmlns="http://www.w3.org/2000/svg" width="12" height="15" viewBox="0 0 12 15"><g><g><path fill="#00ffd8" d="M12 5.98c0 .387-.037.765-.108 1.134 0 0-.012.067-.04.187a5.722 5.722 0 0 1-.404 1.187c-.604 1.426-1.995 3.803-5.116 6.385a.523.523 0 0 1-.666 0C2.545 12.288 1.154 9.911.553 8.491a5.984 5.984 0 0 1-.524-3.093C.315 2.432 2.798.108 5.786.003 9.196-.117 12 2.603 12 5.98zm-3.087.07A2.91 2.91 0 0 0 6 3.145 2.91 2.91 0 0 0 3.085 6.05a2.91 2.91 0 0 0 2.914 2.905A2.91 2.91 0 0 0 8.913 6.05z"/></g></g></svg>