<svg xmlns="http://www.w3.org/2000/svg" width="13" height="13" viewBox="0 0 13 13"><g><g><path fill="#666" d="M12.995 10.675c-.37 1.202-1.748 2.075-3.278 2.074-.15 0-.301-.009-.448-.025-1.86-.245-4.037-1.415-5.828-3.133C1.556 7.939.28 5.944.027 4.253-.23 2.541.607 1.265 2.262.838c.085-.022.175-.033.268-.033.969 0 2.124 1.255 2.525 2.156.261.586.241 1.038-.057 1.306-.75.673-1.029 1.083-.997 1.46.037.42.464.907 1.19 1.604a21.035 21.035 0 0 0 .72.66c.81.709 1.338 1.092 1.813 1.092.396 0 .824-.256 1.529-.916.106-.1.303-.218.635-.218.874 0 2.108.782 2.712 1.512.366.443.502.862.394 1.214z"/><path fill="#41cdb8" d="M12.995 10.675c-.37 1.202-1.748 2.075-3.278 2.074-.15 0-.301-.009-.448-.025-1.86-.245-4.037-1.415-5.828-3.133C1.556 7.939.28 5.944.027 4.253-.23 2.541.607 1.265 2.262.838c.085-.022.175-.033.268-.033.969 0 2.124 1.255 2.525 2.156.261.586.241 1.038-.057 1.306-.75.673-1.029 1.083-.997 1.46.037.42.464.907 1.19 1.604a21.035 21.035 0 0 0 .72.66c.81.709 1.338 1.092 1.813 1.092.396 0 .824-.256 1.529-.916.106-.1.303-.218.635-.218.874 0 2.108.782 2.712 1.512.366.443.502.862.394 1.214z"/></g></g></svg>