<svg xmlns="http://www.w3.org/2000/svg" xmlns:xlink="http://www.w3.org/1999/xlink" width="16" height="10.97" viewBox="0 0 16 10.97">
  <metadata><?xpacket begin="﻿" id="W5M0MpCehiHzreSzNTczkc9d"?>
<x:xmpmeta xmlns:x="adobe:ns:meta/" x:xmptk="Adobe XMP Core 5.6-c142 79.160924, 2017/07/13-01:06:39        ">
   <rdf:RDF xmlns:rdf="http://www.w3.org/1999/02/22-rdf-syntax-ns#">
      <rdf:Description rdf:about=""/>
   </rdf:RDF>
</x:xmpmeta>
<?xpacket end="w"?></metadata>
  <path id="mail" data-name="mail" class="cls-1" d="M1359,4492.42a1.9,1.9,0,0,0,1.99-1.79v-7.38a1.9,1.9,0,0,0-1.99-1.8h-12.01a1.911,1.911,0,0,0-1.99,1.8v7.38a1.9,1.9,0,0,0,1.99,1.79H1359Zm-11.96-8.47a0.415,0.415,0,0,1-.06-0.63,0.544,0.544,0,0,1,.69-0.05l5.33,4.07,5.32-4.06a0.533,0.533,0,0,1,.7.05,0.419,0.419,0,0,1-.06.62l-3.8,2.9,3.82,3.23a0.427,0.427,0,0,1,.02.63,0.537,0.537,0,0,1-.7.02l-3.9-3.3-1.09.83a0.5,0.5,0,0,1-.31.1,0.509,0.509,0,0,1-.32-0.1l-1.09-.83-3.9,3.3a0.543,0.543,0,0,1-.34.12,0.5,0.5,0,0,1-.35-0.14,0.413,0.413,0,0,1,.02-0.63l3.81-3.23Z" transform="translate(-1345 -4481.44)"/>
</svg>
